<?xml version="1.0" encoding="UTF-8" standalone="no"?>
<!-- Created with Inkscape (http://www.inkscape.org/) -->

<svg
   xmlns:dc="http://purl.org/dc/elements/1.1/"
   xmlns:cc="http://creativecommons.org/ns#"
   xmlns:rdf="http://www.w3.org/1999/02/22-rdf-syntax-ns#"
   xmlns:svg="http://www.w3.org/2000/svg"
   xmlns="http://www.w3.org/2000/svg"
   xmlns:sodipodi="http://sodipodi.sourceforge.net/DTD/sodipodi-0.dtd"
   xmlns:inkscape="http://www.inkscape.org/namespaces/inkscape"
   width="820"
   height="540"
   id="svg2"
   version="1.1"
   inkscape:version="0.47 r22583"
   sodipodi:docname="kauri-uri-templates.svg">
  <defs
     id="defs4">
    <marker
       inkscape:stockid="Arrow1Lend"
       orient="auto"
       refY="0"
       refX="0"
       id="Arrow1Lend"
       style="overflow:visible">
      <path
         id="path3687"
         d="M 0,0 5,-5 -12.5,0 5,5 0,0 z"
         style="fill-rule:evenodd;stroke:#000000;stroke-width:1pt;marker-start:none"
         transform="matrix(-0.8,0,0,-0.8,-10,0)" />
    </marker>
    <inkscape:perspective
       sodipodi:type="inkscape:persp3d"
       inkscape:vp_x="0 : 526.18109 : 1"
       inkscape:vp_y="0 : 1000 : 0"
       inkscape:vp_z="744.09448 : 526.18109 : 1"
       inkscape:persp3d-origin="372.04724 : 350.78739 : 1"
       id="perspective10" />
    <filter
       inkscape:collect="always"
       id="filter3645"
       color-interpolation-filters="sRGB">
      <feGaussianBlur
         inkscape:collect="always"
         stdDeviation="2.675"
         id="feGaussianBlur3647" />
    </filter>
  </defs>
  <sodipodi:namedview
     id="base"
     pagecolor="#ffffff"
     bordercolor="#666666"
     borderopacity="1.0"
     inkscape:pageopacity="0.0"
     inkscape:pageshadow="2"
     inkscape:zoom="1.1560976"
     inkscape:cx="409.13502"
     inkscape:cy="270"
     inkscape:document-units="px"
     inkscape:current-layer="layer1"
     showgrid="false"
     inkscape:window-width="1510"
     inkscape:window-height="1120"
     inkscape:window-x="356"
     inkscape:window-y="22"
     inkscape:window-maximized="0"
     units="pt" />
  <metadata
     id="metadata7">
    <rdf:RDF>
      <cc:Work
         rdf:about="">
        <dc:format>image/svg+xml</dc:format>
        <dc:type
           rdf:resource="http://purl.org/dc/dcmitype/StillImage" />
        <dc:title />
      </cc:Work>
    </rdf:RDF>
  </metadata>
  <g
     inkscape:label="Layer 1"
     inkscape:groupmode="layer"
     id="layer1"
     transform="translate(-12.449087,-426.13029)">
    <rect
       ry="5"
       rx="5"
       y="753.01532"
       x="17.091587"
       height="210.47244"
       width="811.67841"
       id="rect4079"
       style="fill:#fce94f;stroke:#000000;stroke-width:1.28499997000000010;stroke-linecap:butt;stroke-linejoin:round;stroke-miterlimit:4;stroke-opacity:1;stroke-dasharray:none;stroke-dashoffset:0;fill-opacity:0.15686275" />
    <rect
       style="fill:#fce94f;stroke:#204a87;stroke-width:1.28499997000000010;stroke-linecap:butt;stroke-linejoin:round;stroke-miterlimit:4;stroke-opacity:1;stroke-dasharray:none;stroke-dashoffset:0;fill-opacity:0.15686275"
       id="rect4077"
       width="811.67841"
       height="210.47244"
       x="17.091587"
       y="429.01532"
       rx="5"
       ry="5" />
    <text
       xml:space="preserve"
       style="font-size:12px;font-style:normal;font-variant:normal;font-weight:normal;font-stretch:normal;writing-mode:lr-tb;fill:#000000;fill-opacity:1;stroke:none;font-family:DejaVu Sans Mono;-inkscape-font-specification:DejaVu Sans Mono"
       x="134.30325"
       y="689.84003"
       id="text4875"><tspan
         sodipodi:role="line"
         id="tspan4877"
         x="134.30325"
         y="689.84003">&lt;&lt;instantiates&gt;&gt;</tspan></text>
    <text
       id="text4879"
       y="667.84003"
       x="201.58107"
       style="font-size:12px;font-style:normal;font-variant:normal;font-weight:normal;font-stretch:normal;writing-mode:lr-tb;fill:#000000;fill-opacity:1;stroke:none;font-family:DejaVu Sans Mono;-inkscape-font-specification:DejaVu Sans Mono"
       xml:space="preserve"><tspan
         y="667.84003"
         x="201.58107"
         id="tspan4881"
         sodipodi:role="line">&lt;&lt;instantiates&gt;&gt;</tspan></text>
    <text
       id="text4887"
       y="689.84003"
       x="336.13669"
       style="font-size:12px;font-style:normal;font-variant:normal;font-weight:normal;font-stretch:normal;writing-mode:lr-tb;fill:#000000;fill-opacity:1;stroke:none;font-family:DejaVu Sans Mono;-inkscape-font-specification:DejaVu Sans Mono"
       xml:space="preserve"><tspan
         y="689.84003"
         x="336.13669"
         id="tspan4889"
         sodipodi:role="line">&lt;&lt;instantiates&gt;&gt;</tspan></text>
    <g
       id="g4972"
       transform="translate(4,-2)">
      <g
         transform="translate(4.2697997,116)"
         id="g3649">
        <path
           id="path3627"
           style="fill:none;stroke:#3465a4;stroke-width:1.28499997;stroke-linecap:butt;stroke-linejoin:round;stroke-miterlimit:4;stroke-opacity:1;stroke-dasharray:none;stroke-dashoffset:0"
           d="m 164.52268,391.47759 c 0,0 -15,-15 -15,-15 l 15,15 z m -94.999999,-15 c -2.77,0 -5,2.23 -5,5 l 0,104 c 0,2.77 2.23,5 5,5 l 89.999999,0 c 2.77,0 5,-2.23 5,-5 l 0,-94 c 0,2.77 -2.23,5 -5,5 l -10,0 c -2.77,0 -5,-2.23 -5,-5 l 0,-10 c 0,-2.77 2.23,-5 5,-5 l -79.999999,0 z" />
        <path
           d="m 166.50858,393.46349 c 0,0 -15,-15 -15,-15 l 15,15 z m -94.999989,-15 c -2.77,0 -5,2.23 -5,5 l 0,104 c 0,2.77 2.23,5 5,5 l 89.999989,0 c 2.77,0 5,-2.23 5,-5 l 0,-94 c 0,2.77 -2.23,5 -5,5 l -10,0 c -2.77,0 -5,-2.23 -5,-5 l 0,-10 c 0,-2.77 2.23,-5 5,-5 l -79.999989,0 z"
           style="fill:none;stroke:#000000;stroke-width:1.28499997;stroke-linecap:butt;stroke-linejoin:round;stroke-miterlimit:4;stroke-opacity:1;stroke-dasharray:none;stroke-dashoffset:0;filter:url(#filter3645)"
           id="path3631" />
      </g>
      <text
         id="text4891"
         y="469.26895"
         x="45.429752"
         style="font-size:12px;font-style:normal;font-variant:normal;font-weight:normal;font-stretch:normal;writing-mode:lr-tb;fill:#3465a4;fill-opacity:1;stroke:none;font-family:DejaVu Sans Mono;-inkscape-font-specification:DejaVu Sans Mono"
         xml:space="preserve"><tspan
           y="469.26895"
           x="45.429752"
           id="tspan4893"
           sodipodi:role="line">2010-08-04T07:01:00 /</tspan><tspan
           id="tspan4950"
           y="484.26895"
           x="45.429752"
           sodipodi:role="line">  some-entry</tspan></text>
    </g>
    <g
       id="g4964"
       transform="translate(4.260735,-2)">
      <g
         transform="translate(172.20357,116)"
         id="g3653">
        <path
           d="m 164.52268,391.47759 c 0,0 -15,-15 -15,-15 l 15,15 z m -94.999999,-15 c -2.77,0 -5,2.23 -5,5 l 0,104 c 0,2.77 2.23,5 5,5 l 89.999999,0 c 2.77,0 5,-2.23 5,-5 l 0,-94 c 0,2.77 -2.23,5 -5,5 l -10,0 c -2.77,0 -5,-2.23 -5,-5 l 0,-10 c 0,-2.77 2.23,-5 5,-5 l -79.999999,0 z"
           style="fill:none;stroke:#3465a4;stroke-width:1.28499997;stroke-linecap:butt;stroke-linejoin:round;stroke-miterlimit:4;stroke-opacity:1;stroke-dasharray:none;stroke-dashoffset:0"
           id="path3655" />
        <path
           id="path3657"
           style="fill:none;stroke:#000000;stroke-width:1.28499997;stroke-linecap:butt;stroke-linejoin:round;stroke-miterlimit:4;stroke-opacity:1;stroke-dasharray:none;stroke-dashoffset:0;filter:url(#filter3645)"
           d="m 166.50858,393.46349 c 0,0 -15,-15 -15,-15 l 15,15 z m -94.999989,-15 c -2.77,0 -5,2.23 -5,5 l 0,104 c 0,2.77 2.23,5 5,5 l 89.999989,0 c 2.77,0 5,-2.23 5,-5 l 0,-94 c 0,2.77 -2.23,5 -5,5 l -10,0 c -2.77,0 -5,-2.23 -5,-5 l 0,-10 c 0,-2.77 2.23,-5 5,-5 l -79.999989,0 z" />
      </g>
      <text
         xml:space="preserve"
         style="font-size:12px;font-style:normal;font-variant:normal;font-weight:normal;font-stretch:normal;writing-mode:lr-tb;fill:#3465a4;fill-opacity:1;stroke:none;font-family:DejaVu Sans Mono;-inkscape-font-specification:DejaVu Sans Mono"
         x="213.36353"
         y="469.26895"
         id="text4895"><tspan
           sodipodi:role="line"
           id="tspan4897"
           x="213.36353"
           y="469.26895">2010-08-04T12:36:18 /</tspan><tspan
           id="tspan4952"
           sodipodi:role="line"
           x="213.36353"
           y="484.26895">  another-topic</tspan></text>
    </g>
    <g
       id="g4956"
       transform="translate(4.0000076,-2)">
      <g
         id="g3659"
         transform="translate(340.65883,116)">
        <path
           id="path3661"
           style="fill:none;stroke:#3465a4;stroke-width:1.28499997;stroke-linecap:butt;stroke-linejoin:round;stroke-miterlimit:4;stroke-opacity:1;stroke-dasharray:none;stroke-dashoffset:0"
           d="m 164.52268,391.47759 c 0,0 -15,-15 -15,-15 l 15,15 z m -94.999999,-15 c -2.77,0 -5,2.23 -5,5 l 0,104 c 0,2.77 2.23,5 5,5 l 89.999999,0 c 2.77,0 5,-2.23 5,-5 l 0,-94 c 0,2.77 -2.23,5 -5,5 l -10,0 c -2.77,0 -5,-2.23 -5,-5 l 0,-10 c 0,-2.77 2.23,-5 5,-5 l -79.999999,0 z" />
        <path
           d="m 166.50858,393.46349 c 0,0 -15,-15 -15,-15 l 15,15 z m -94.999989,-15 c -2.77,0 -5,2.23 -5,5 l 0,104 c 0,2.77 2.23,5 5,5 l 89.999989,0 c 2.77,0 5,-2.23 5,-5 l 0,-94 c 0,2.77 -2.23,5 -5,5 l -10,0 c -2.77,0 -5,-2.23 -5,-5 l 0,-10 c 0,-2.77 2.23,-5 5,-5 l -79.999989,0 z"
           style="fill:none;stroke:#000000;stroke-width:1.28499997;stroke-linecap:butt;stroke-linejoin:round;stroke-miterlimit:4;stroke-opacity:1;stroke-dasharray:none;stroke-dashoffset:0;filter:url(#filter3645)"
           id="path3663" />
      </g>
      <text
         id="text4899"
         y="469.26895"
         x="381.37054"
         style="font-size:12px;font-style:normal;font-variant:normal;font-weight:normal;font-stretch:normal;writing-mode:lr-tb;fill:#3465a4;fill-opacity:1;stroke:none;font-family:DejaVu Sans Mono;-inkscape-font-specification:DejaVu Sans Mono"
         xml:space="preserve"><tspan
           y="469.26895"
           x="381.37054"
           id="tspan4901"
           sodipodi:role="line">2010-08-05T17:45:03 / </tspan><tspan
           id="tspan4954"
           y="484.26895"
           x="381.37054"
           sodipodi:role="line">  sample-title</tspan></text>
    </g>
    <rect
       style="fill:none;stroke:#4e9a06;stroke-width:1.28499997;stroke-linecap:butt;stroke-linejoin:round;stroke-miterlimit:4;stroke-opacity:1;stroke-dasharray:none;stroke-dashoffset:0"
       id="rect5023"
       width="80"
       height="40"
       x="252.74016"
       y="825.88977"
       rx="5"
       ry="5" />
    <rect
       ry="5"
       rx="5"
       y="875.88977"
       x="252.74016"
       height="20"
       width="80"
       id="rect5025"
       style="fill:none;stroke:#4e9a06;stroke-width:1.28499997;stroke-linecap:butt;stroke-linejoin:round;stroke-miterlimit:4;stroke-opacity:1;stroke-dasharray:none;stroke-dashoffset:0" />
    <g
       id="g2920"
       transform="translate(-292.07127,22.169084)">
      <text
         id="text5027"
         y="823.76288"
         x="419.77579"
         style="font-size:12px;font-style:normal;font-variant:normal;font-weight:normal;font-stretch:normal;writing-mode:lr-tb;fill:#4e9a06;fill-opacity:1;stroke:none;font-family:DejaVu Sans Mono;-inkscape-font-specification:DejaVu Sans Mono"
         xml:space="preserve"><tspan
           style="text-align:center;text-anchor:middle"
           id="tspan2858"
           y="823.76288"
           x="423.38516"
           sodipodi:role="line">defined </tspan><tspan
           style="text-align:center;text-anchor:middle"
           id="tspan2916"
           y="838.76288"
           x="423.38516"
           sodipodi:role="line">template </tspan><tspan
           style="text-align:center;text-anchor:middle"
           id="tspan2918"
           y="853.76288"
           x="419.77579"
           sodipodi:role="line">zones</tspan></text>
      <rect
         style="fill:none;stroke:#4e9a06;stroke-width:1.28499985;stroke-linecap:butt;stroke-linejoin:round;stroke-miterlimit:4;stroke-opacity:1;stroke-dasharray:none;stroke-dashoffset:0"
         id="rect2862"
         width="95.10569"
         height="66.183167"
         x="372.60672"
         y="800.71362"
         rx="5.0000005"
         ry="5" />
    </g>
    <path
       style="fill:none;stroke:#000000;stroke-width:1px;stroke-linecap:butt;stroke-linejoin:miter;stroke-opacity:1;marker-end:url(#Arrow1Lend)"
       d="m 175.64114,853.0618 77.09902,-4.72213"
       id="path2927"
       inkscape:connector-type="polyline"
       inkscape:connection-start="#g2920"
       inkscape:connection-end="#rect5023" />
    <path
       style="fill:none;stroke:#000000;stroke-width:1px;stroke-linecap:butt;stroke-linejoin:miter;stroke-opacity:1;marker-end:url(#Arrow1Lend)"
       d="m 175.64114,864.61413 77.59362,14.09793"
       id="path3891"
       inkscape:connector-type="polyline"
       inkscape:connection-start="#g2920"
       inkscape:connection-end="#rect5025" />
    <text
       xml:space="preserve"
       style="font-size:24px;font-style:normal;font-variant:normal;font-weight:normal;font-stretch:normal;writing-mode:lr-tb;fill:#204a87;fill-opacity:1;stroke:none;font-family:DejaVu Sans Mono;-inkscape-font-specification:DejaVu Sans Mono"
       x="576.18481"
       y="495.66171"
       id="text4081"><tspan
         sodipodi:role="line"
         x="576.18481"
         y="495.66171"
         id="tspan4089">RUN-TIME REQUESTS</tspan><tspan
         sodipodi:role="line"
         x="576.18481"
         y="525.66174"
         id="tspan4097" /><tspan
         sodipodi:role="line"
         x="576.18481"
         y="555.66174"
         id="tspan4099">Page Impressions</tspan><tspan
         sodipodi:role="line"
         x="576.18481"
         y="585.66174"
         id="tspan4101">&amp; Representations</tspan></text>
    <text
       xml:space="preserve"
       style="font-size:24px;font-style:normal;font-variant:normal;font-weight:normal;font-stretch:normal;writing-mode:lr-tb;fill:#000000;fill-opacity:1;stroke:none;font-family:DejaVu Sans Mono;-inkscape-font-specification:DejaVu Sans Mono"
       x="561.90302"
       y="806.98785"
       id="text4103"><tspan
         sodipodi:role="line"
         id="tspan4105"
         x="561.90302"
         y="806.98785">DESIGN-TIME PAGES</tspan><tspan
         sodipodi:role="line"
         x="561.90302"
         y="836.98785"
         id="tspan4107" /><tspan
         sodipodi:role="line"
         x="561.90302"
         y="866.98785"
         id="tspan4109">Identified </tspan><tspan
         sodipodi:role="line"
         x="561.90302"
         y="896.98785"
         id="tspan4111">Templates and</tspan><tspan
         sodipodi:role="line"
         x="561.90302"
         y="926.98785"
         id="tspan4113">URI-Patterns</tspan></text>
    <g
       id="g4928"
       transform="translate(3.944128,-2)">
      <g
         id="g3671"
         transform="translate(172.74431,424)">
        <path
           id="path3673"
           style="fill:none;stroke:#000000;stroke-width:1.28499997;stroke-linecap:butt;stroke-linejoin:round;stroke-miterlimit:4;stroke-opacity:1;stroke-dasharray:none;stroke-dashoffset:0"
           d="m 164.52268,391.47759 c 0,0 -15,-15 -15,-15 l 15,15 z m -94.999999,-15 c -2.77,0 -5,2.23 -5,5 l 0,104 c 0,2.77 2.23,5 5,5 l 89.999999,0 c 2.77,0 5,-2.23 5,-5 l 0,-94 c 0,2.77 -2.23,5 -5,5 l -10,0 c -2.77,0 -5,-2.23 -5,-5 l 0,-10 c 0,-2.77 2.23,-5 5,-5 l -79.999999,0 z" />
        <path
           d="m 166.50858,393.46349 c 0,0 -15,-15 -15,-15 l 15,15 z m -94.999989,-15 c -2.77,0 -5,2.23 -5,5 l 0,104 c 0,2.77 2.23,5 5,5 l 89.999989,0 c 2.77,0 5,-2.23 5,-5 l 0,-94 c 0,2.77 -2.23,5 -5,5 l -10,0 c -2.77,0 -5,-2.23 -5,-5 l 0,-10 c 0,-2.77 2.23,-5 5,-5 l -79.999989,0 z"
           style="fill:none;stroke:#000000;stroke-width:1.28499997;stroke-linecap:butt;stroke-linejoin:round;stroke-miterlimit:4;stroke-opacity:1;stroke-dasharray:none;stroke-dashoffset:0;filter:url(#filter3645)"
           id="path3675" />
      </g>
      <text
         id="text4924"
         y="932.5802"
         x="195.34177"
         style="font-size:12px;font-style:normal;font-variant:normal;font-weight:normal;font-stretch:normal;writing-mode:lr-tb;fill:#000000;fill-opacity:1;stroke:none;font-family:DejaVu Sans Mono;-inkscape-font-specification:DejaVu Sans Mono"
         xml:space="preserve"><tspan
           style="font-size:12px;fill:#000000;fill-opacity:1"
           y="932.5802"
           x="195.34177"
           id="tspan4926"
           sodipodi:role="line">{pubdate_key}/{title}..xml</tspan></text>
    </g>
    <path
       style="fill:none;stroke:#000000;stroke-width:1px;stroke-linecap:butt;stroke-linejoin:miter;stroke-opacity:1;marker-end:url(#Arrow1Lend)"
       d="M 148.59844,180.3332 247.3544,372.3473"
       id="path4138"
       transform="translate(12.449087,426.13029)"
       inkscape:connector-type="polyline"
       inkscape:connection-start="#g4972"
       inkscape:connection-end="#g4928" />
    <path
       style="fill:none;stroke:#000000;stroke-width:1px;stroke-linecap:butt;stroke-linejoin:miter;stroke-opacity:1;marker-end:url(#Arrow1Lend)"
       d="m 280.57207,180.3332 0.13143,192.0141"
       id="path4142"
       transform="translate(12.449087,426.13029)"
       inkscape:connector-type="polyline"
       inkscape:connection-start="#g4964"
       inkscape:connection-end="#g4928" />
    <path
       style="fill:none;stroke:#000000;stroke-width:1px;stroke-linecap:butt;stroke-linejoin:miter;stroke-opacity:1;marker-end:url(#Arrow1Lend)"
       d="M 412.54573,180.3332 308.76203,382.66137"
       id="path4144"
       transform="translate(12.449087,426.13029)"
       inkscape:connector-type="polyline"
       inkscape:connection-start="#g4956"
       inkscape:connection-end="#g4928" />
  </g>
</svg>
